<svg width="116" height="80" viewBox="0 0 116 80" fill="none" xmlns="http://www.w3.org/2000/svg">
<path d="M35.1077 42.1866L36.2395 38.7755L46.5136 10.1386C46.6499 9.75872 46.3684 9.3586 45.9648 9.3586H27.6098L30.1992 0.42083C30.2715 0.171543 30.4998 0 30.7593 0H87.1725L84.5128 8.51111C84.3606 8.99796 83.9097 9.32945 83.3997 9.32945H56.6477L44.9276 42.1866L70.7289 42.1574L73.7901 51.516L41.8664 51.5452L36.327 68.4548C34.8498 72.3032 29.2424 80 18.6302 80C5.3649 80 -0.0578442 68.1341 0.000464877 60.9329C0.0587739 53.7318 5.94799 42.8571 17.9305 42.1866H35.1077Z" fill="#2D4B2D"/>
<path d="M73.7901 51.516L79.3294 68.4257C80.8066 72.274 86.414 79.9708 97.0263 79.9708C110.292 79.9708 115.714 68.1049 115.656 60.9038C115.598 53.7026 109.708 42.828 97.7259 42.1574H80.5487H70.7289L73.7901 51.516Z" fill="#2D4B2D"/>
<path d="M27.7293 64.723L31.9859 51.4868H18.604C11.4903 51.8367 9.44946 58.309 9.39115 60.9038C9.33284 63.4985 10.0034 65.4227 11.8401 67.6676C13.6768 69.9125 17.0879 71.8659 22.3066 70.204C25.6419 68.8046 27.3114 65.9669 27.7293 64.723Z" fill="#F9F9F9"/>
<path d="M87.8137 64.723L83.5572 51.4868H96.9391C104.053 51.8367 106.094 58.309 106.152 60.9038C106.21 63.4985 105.54 65.4227 103.703 67.6676C101.866 69.9125 98.4551 71.8659 93.2365 70.204C89.9012 68.8046 88.2316 65.9669 87.8137 64.723Z" fill="#F9F9F9"/>
<path d="M58.1691 36.6945C56.8645 35.3899 55.8426 33.8824 55.1034 32.1719C54.3641 30.4615 53.9945 28.693 53.9945 26.8666C53.9945 25.0402 54.3423 23.2355 55.0381 21.4526C55.7339 19.6696 56.8645 17.9954 58.43 16.4299C59.4447 15.4152 60.6986 14.5455 62.1916 13.8208C63.6846 13.096 65.4531 12.5234 67.4969 12.103C69.5408 11.6827 71.8745 11.429 74.4982 11.342C77.1218 11.2551 80.0572 11.3565 83.3041 11.6464C83.5361 14.7195 83.6085 17.5461 83.5216 20.1262C83.4346 22.7064 83.1954 25.0329 82.804 27.1058C82.4127 29.1786 81.8618 30.9905 81.1516 32.5415C80.4413 34.0925 79.5643 35.3899 78.5207 36.4336C76.9841 37.9701 75.3534 39.0935 73.6285 39.8037C71.9035 40.514 70.1423 40.8691 68.3449 40.8691C66.4605 40.8691 64.6196 40.4995 62.8221 39.7602C61.0247 39.021 59.4737 37.9991 58.1691 36.6945ZM63.0396 35.9987C63.8803 36.4915 64.7428 36.8467 65.627 37.0641C66.5112 37.2815 67.4172 37.3903 68.3449 37.3903C69.6785 37.3903 70.9975 37.1221 72.3021 36.5858C73.6067 36.0494 74.8533 35.187 76.0419 33.9983C76.5638 33.4765 77.0928 32.7445 77.6292 31.8023C78.1655 30.8601 78.6294 29.628 79.0207 28.106C79.4121 26.5839 79.7093 24.743 79.9122 22.5832C80.1151 20.4234 80.1441 17.8505 79.9992 14.8644C78.5786 14.8064 76.9769 14.7847 75.194 14.7992C73.411 14.8137 71.6353 14.9514 69.8669 15.2123C68.0985 15.4732 66.417 15.8936 64.8225 16.4734C63.228 17.0532 61.9234 17.8505 60.9088 18.8651C59.6042 20.1697 58.7055 21.4598 58.2126 22.7354C57.7198 24.011 57.4733 25.2431 57.4733 26.4317C57.4733 28.1422 57.7995 29.6425 58.4518 30.9326C59.1041 32.2226 59.6766 33.1286 60.1695 33.6504C61.3871 31.3312 62.9961 29.1061 64.9965 26.9753C66.9968 24.8445 69.3306 23.0978 71.9977 21.7352C69.9104 23.5617 68.0912 25.6272 66.5402 27.932C64.9892 30.2368 63.8223 32.9257 63.0396 35.9987Z" fill="#2D4B2D"/>
</svg>
